<?xml version="1.0" encoding="UTF-8"?>
<svg version="1.1" xmlns="http://www.w3.org/2000/svg" width="73" height="100">
<path d="M0 0 C0.99 0 1.98 0 3 0 C2.98839844 0.62648437 2.97679688 1.25296875 2.96484375 1.8984375 C2.95582031 2.71570313 2.94679688 3.53296875 2.9375 4.375 C2.92589844 5.18710938 2.91429688 5.99921875 2.90234375 6.8359375 C2.85533666 9.04937142 2.85533666 9.04937142 4 11 C4.33 8.69 4.66 6.38 5 4 C5.66 4.33 6.32 4.66 7 5 C7 9.33333333 7 13.66666667 7 18 C7.495 19.485 7.495 19.485 8 21 C8.66 20.67 9.32 20.34 10 20 C10.09765625 26.15234375 10.09765625 26.15234375 10 28 C9.505 28.495 9.505 28.495 9 29 C9.33 29 9.66 29 10 29 C10 32 10 35 10 38 C10.20625 38.94875 10.4125 39.8975 10.625 40.875 C11 44 11 44 9 47 C8.505 47.99 8.505 47.99 8 49 C5.03 48.505 5.03 48.505 2 48 C2.33 52.29 2.66 56.58 3 61 C4.98 60.505 4.98 60.505 7 60 C8.91360971 59.78351622 10.83083621 59.59743032 12.75 59.4375 C13.73484375 59.35371094 14.7196875 59.26992188 15.734375 59.18359375 C16.48203125 59.12300781 17.2296875 59.06242187 18 59 C18 57.02 18 55.04 18 53 C16.35 53 14.7 53 13 53 C12.00137301 45.63512596 11.89668969 38.42686315 12 31 C12.99 30.67 13.98 30.34 15 30 C15 27.03 15 24.06 15 21 C15.66 20.67 16.32 20.34 17 20 C17 21.98 17 23.96 17 26 C18.41577477 24.81575674 18.41577477 24.81575674 18.0625 21.4375 C18.041875 20.303125 18.02125 19.16875 18 18 C18.66 18.33 19.32 18.66 20 19 C20.59355614 21.64860427 20.74209269 24.29197322 21 27 C21.66 24.69 22.32 22.38 23 20 C23.99 20.66 24.98 21.32 26 22 C26.328125 24.12890625 26.328125 24.12890625 26.25 26.5625 C26.23453125 27.36816406 26.2190625 28.17382812 26.203125 29.00390625 C26 31 26 31 25 32 C25.31229724 33.33841672 25.64830932 34.67139075 26 36 C26 41.33333333 26 46.66666667 26 52 C23.03 52.495 23.03 52.495 20 53 C20 54.98 20 56.96 20 59 C23.63 59 27.26 59 31 59 C31 61.31 31 63.62 31 66 C24.73 66.33 18.46 66.66 12 67 C11.67 67.66 11.34 68.32 11 69 C10.071875 69.226875 9.14375 69.45375 8.1875 69.6875 C3.18497738 70.9563311 -0.96063256 73.77546226 -5.328125 76.44140625 C-8 78 -8 78 -11 79 C-14.44934517 80.49471624 -17.11990142 82.59991785 -20 85 C-21.74271938 82.702779 -23.39911152 80.40133271 -25 78 C-24.67 77.01 -24.34 76.02 -24 75 C-25.32 74.34 -26.64 73.68 -28 73 C-28 71.02 -28 69.04 -28 67 C-21.07 67.495 -21.07 67.495 -14 68 C-14 67.34 -14 66.68 -14 66 C-15.39025391 66.01740234 -15.39025391 66.01740234 -16.80859375 66.03515625 C-18.00613281 66.04417969 -19.20367187 66.05320312 -20.4375 66.0625 C-21.63246094 66.07410156 -22.82742187 66.08570312 -24.05859375 66.09765625 C-27 66 -27 66 -28 65 C-28.04063832 63.33382885 -28.042721 61.66611905 -28 60 C-25.24921116 59.08307039 -23.64051087 58.89113917 -20.8125 58.9375 C-19.554375 58.958125 -18.29625 58.97875 -17 59 C-17 57.02 -17 55.04 -17 53 C-17.61875 52.896875 -18.2375 52.79375 -18.875 52.6875 C-21 52 -21 52 -23 49 C-23.11871868 46.07257104 -23.14045731 43.23471794 -23.0625 40.3125 C-22.93058885 34.41558326 -23.1386399 28.84255881 -24 23 C-23.01 23 -22.02 23 -21 23 C-20.67 22.01 -20.34 21.02 -20 20 C-19.34 21.98 -18.68 23.96 -18 26 C-16.68 25.67 -15.36 25.34 -14 25 C-14.33 24.01 -14.66 23.02 -15 22 C-13.68 21.67 -12.36 21.34 -11 21 C-9.22818944 27.61866423 -8.94660917 33.28973987 -9.71875 40.08984375 C-9.98221498 42.81597444 -9.98027341 45.39227782 -9.875 48.125 C-9.91625 49.40375 -9.9575 50.6825 -10 52 C-10.99 52.66 -11.98 53.32 -13 54 C-13.99 53.67 -14.98 53.34 -16 53 C-16 54.98 -16 56.96 -16 59 C-14.89591797 59.09087891 -14.89591797 59.09087891 -13.76953125 59.18359375 C-12.79371094 59.26738281 -11.81789063 59.35117187 -10.8125 59.4375 C-9.84957031 59.51871094 -8.88664062 59.59992187 -7.89453125 59.68359375 C-5.21350398 59.97666151 -2.6337014 60.42703754 0 61 C-0.03305502 59.06177404 -0.10249905 57.12414332 -0.1875 55.1875 C-0.22230469 54.10855469 -0.25710937 53.02960937 -0.29296875 51.91796875 C-0.70198925 48.7982706 -0.70198925 48.7982706 -3.46484375 47.3359375 C-4.30144531 46.89507812 -5.13804688 46.45421875 -6 46 C-7.375 42.4375 -7.375 42.4375 -8 39 C-7.67 38.34 -7.34 37.68 -7 37 C-7.495 36.505 -7.495 36.505 -8 36 C-8.07174379 34.66843527 -8.08392842 33.3333239 -8.0625 32 C-8.05347656 31.278125 -8.04445313 30.55625 -8.03515625 29.8125 C-8.02355469 29.214375 -8.01195313 28.61625 -8 28 C-8 27.67 -8 27.34 -8 27 C-8 20.33333333 -8 13.66666667 -8 7 C-7.01 7.33 -6.02 7.66 -5 8 C-5.01160156 8.60328125 -5.02320312 9.2065625 -5.03515625 9.828125 C-5.04417969 10.62734375 -5.05320312 11.4265625 -5.0625 12.25 C-5.07410156 13.03890625 -5.08570312 13.8278125 -5.09765625 14.640625 C-5.06703502 17.30478142 -5.06703502 17.30478142 -4 21 C-4.33 15.39 -4.66 9.78 -5 4 C-4.01 4 -3.02 4 -2 4 C-2 6.97 -2 9.94 -2 13 C-0.71553081 10.43106162 -0.67022856 8.23423663 -0.4375 5.375 C-0.35371094 4.37210937 -0.26992188 3.36921875 -0.18359375 2.3359375 C-0.09271484 1.17964844 -0.09271484 1.17964844 0 0 Z M-7 18 C-6 20 -6 20 -6 20 Z M5 21 C4.67 21.66 4.34 22.32 4 23 C4.66 23 5.32 23 6 23 C5.67 22.34 5.34 21.68 5 21 Z M-14 28 C-13 30 -13 30 -13 30 Z M16 28 C17 30 17 30 17 30 Z M2 30 C3 33 3 33 3 33 Z M-13 31 C-12.67 31.99 -12.34 32.98 -12 34 C-12 33.01 -12 32.02 -12 31 C-12.33 31 -12.66 31 -13 31 Z M2 39 C3 42 3 42 3 42 Z M-20 40 C-18.515 40.99 -18.515 40.99 -17 42 C-17 41.34 -17 40.68 -17 40 C-17.99 40 -18.98 40 -20 40 Z M-16 40 C-15.67 40.66 -15.34 41.32 -15 42 C-14.34 41.34 -13.68 40.68 -13 40 C-13.99 40 -14.98 40 -16 40 Z M-18 46 C-17 48 -17 48 -17 48 Z M-16 46 C-15 48 -15 48 -15 48 Z M20 46 C21 48 21 48 21 48 Z " fill="#0F813F" transform="translate(35,3)"/>
<path d="M0 0 C0.6875 1.8125 0.6875 1.8125 1 4 C0 5.75 0 5.75 -2 7 C-5.6875 7.1875 -5.6875 7.1875 -9 7 C-9 7.66 -9 8.32 -9 9 C-10.01449219 9.24621094 -11.02898438 9.49242188 -12.07421875 9.74609375 C-16.08387595 10.89214284 -19.29826546 12.80831696 -22.8125 15.0625 C-23.94369523 15.78304713 -25.07519236 16.5031206 -26.20703125 17.22265625 C-27.12871094 17.80917969 -28.05039062 18.39570312 -29 19 C-29.66 19.33 -30.32 19.66 -31 20 C-31.556875 20.70125 -32.11375 21.4025 -32.6875 22.125 C-35 24 -35 24 -38.5 24 C-42.19158734 22.94526076 -43.62522224 21.94472442 -46 19 C-43.42478197 16.42478197 -40.92186595 14.17052899 -38 12 C-37.195625 11.34 -36.39125 10.68 -35.5625 10 C-30.8642277 6.33305577 -26.77175274 4.5188823 -21 3 C-20.01 2.649375 -19.02 2.29875 -18 1.9375 C-12.0055787 0.06424334 -6.21551179 -0.10904407 0 0 Z " fill="#0C803C" transform="translate(65,71)"/>
<path d="M0 0 C0.66 0.33 1.32 0.66 2 1 C2.59355614 3.64860427 2.74209269 6.29197322 3 9 C3.66 6.69 4.32 4.38 5 2 C5.99 2.66 6.98 3.32 8 4 C8.328125 6.12890625 8.328125 6.12890625 8.25 8.5625 C8.23453125 9.36816406 8.2190625 10.17382812 8.203125 11.00390625 C8 13 8 13 7 14 C7.31229724 15.33841672 7.64830932 16.67139075 8 18 C8 23.33333333 8 28.66666667 8 34 C5.03 34.495 5.03 34.495 2 35 C2 36.98 2 38.96 2 41 C4.64 41 7.28 41 10 41 C10 41.66 10 42.32 10 43 C5.38 43 0.76 43 -4 43 C-4 42.34 -4 41.68 -4 41 C-2.68 41 -1.36 41 0 41 C0 39.02 0 37.04 0 35 C-1.65 35 -3.3 35 -5 35 C-5.99862699 27.63512596 -6.10331031 20.42686315 -6 13 C-5.01 12.67 -4.02 12.34 -3 12 C-3 9.03 -3 6.06 -3 3 C-2.34 2.67 -1.68 2.34 -1 2 C-1 3.98 -1 5.96 -1 8 C0.41577477 6.81575674 0.41577477 6.81575674 0.0625 3.4375 C0.041875 2.303125 0.02125 1.16875 0 0 Z M-2 10 C-1 12 -1 12 -1 12 Z M2 28 C3 30 3 30 3 30 Z " fill="#0F7038" transform="translate(53,21)"/>
<path d="M0 0 C0.66 0.33 1.32 0.66 2 1 C2.625 3.5625 2.625 3.5625 3 6 C4.32 5.67 5.64 5.34 7 5 C6.67 4.01 6.34 3.02 6 2 C7.32 1.67 8.64 1.34 10 1 C11.77181056 7.61866423 12.05339083 13.28973987 11.28125 20.08984375 C11.01778502 22.81597444 11.01972659 25.39227782 11.125 28.125 C11.08375 29.40375 11.0425 30.6825 11 32 C10.01 32.66 9.02 33.32 8 34 C8 32.35 8 30.7 8 29 C7.34 29 6.68 29 6 29 C6 28.01 6 27.02 6 26 C5.01 26 4.02 26 3 26 C3.33 28.31 3.66 30.62 4 33 C2.125 32.6875 2.125 32.6875 0 32 C-2.60791519 28.08812722 -2.18313762 24.83458282 -2.0625 20.3125 C-1.93058885 14.41558326 -2.1386399 8.84255881 -3 3 C-2.01 3 -1.02 3 0 3 C0 2.01 0 1.02 0 0 Z M7 8 C8 10 8 10 8 10 Z M8 11 C8.33 11.99 8.66 12.98 9 14 C9 13.01 9 12.02 9 11 C8.67 11 8.34 11 8 11 Z M1 20 C2.485 20.99 2.485 20.99 4 22 C4 21.34 4 20.68 4 20 C3.01 20 2.02 20 1 20 Z M5 20 C5.33 20.66 5.66 21.32 6 22 C6.66 21.34 7.32 20.68 8 20 C7.01 20 6.02 20 5 20 Z " fill="#0D8941" transform="translate(14,23)"/>
<path d="M0 0 C-0.17525656 2.36596356 -0.65976986 3.68251505 -2.40234375 5.30859375 C-2.95019531 5.74300781 -3.49804688 6.17742187 -4.0625 6.625 C-5.5165625 7.800625 -5.5165625 7.800625 -7 9 C-7 9.66 -7 10.32 -7 11 C-9.86600189 12.99027909 -12.51616122 14.51947051 -16 15 C-16.66 14.67 -17.32 14.34 -18 14 C-18.33 14.66 -18.66 15.32 -19 16 C-21.64 16 -24.28 16 -27 16 C-25.51559252 11.2993763 -25.51559252 11.2993763 -23.0625 9.875 C-22.381875 9.58625 -21.70125 9.2975 -21 9 C-20.484375 8.46375 -19.96875 7.9275 -19.4375 7.375 C-18 6 -18 6 -15 6 C-14.566875 5.566875 -14.13375 5.13375 -13.6875 4.6875 C-10.09513506 1.09513506 -4.90440067 -1.63480022 0 0 Z " fill="#0A7737" transform="translate(62,80)"/>
<path d="M0 0 C0.99 0 1.98 0 3 0 C2.98839844 0.62648437 2.97679687 1.25296875 2.96484375 1.8984375 C2.95582031 2.71570313 2.94679688 3.53296875 2.9375 4.375 C2.92589844 5.18710938 2.91429687 5.99921875 2.90234375 6.8359375 C2.85533666 9.04937142 2.85533666 9.04937142 4 11 C4.33 8.69 4.66 6.38 5 4 C5.66 4.33 6.32 4.66 7 5 C7 19.06896552 7 19.06896552 4 23 C0.68027502 24.16190374 -0.62848454 24.12383849 -4 23 C-4.33 16.73 -4.66 10.46 -5 4 C-4.01 4 -3.02 4 -2 4 C-2 6.97 -2 9.94 -2 13 C-0.71553081 10.43106162 -0.67022856 8.23423663 -0.4375 5.375 C-0.35371094 4.37210937 -0.26992188 3.36921875 -0.18359375 2.3359375 C-0.12300781 1.56507812 -0.06242187 0.79421875 0 0 Z " fill="#17713F" transform="translate(35,3)"/>
<path d="M0 0 C0.66 0.33 1.32 0.66 2 1 C2.59355614 3.64860427 2.74209269 6.29197322 3 9 C3.66 6.69 4.32 4.38 5 2 C5.99 2.66 6.98 3.32 8 4 C8.29296875 6.1640625 8.29296875 6.1640625 8.1875 8.625 C8.16042969 9.44226562 8.13335937 10.25953125 8.10546875 11.1015625 C8.07066406 11.72804688 8.03585938 12.35453125 8 13 C7.01 13.495 7.01 13.495 6 14 C3.89767656 16.8684413 3.89767656 16.8684413 3 20 C1.02 20 -0.96 20 -3 20 C-3 14.39 -3 8.78 -3 3 C-2.34 2.67 -1.68 2.34 -1 2 C-1 3.98 -1 5.96 -1 8 C0.41577477 6.81575674 0.41577477 6.81575674 0.0625 3.4375 C0.041875 2.303125 0.02125 1.16875 0 0 Z M-2 10 C-1 12 -1 12 -1 12 Z " fill="#1D7547" transform="translate(53,21)"/>
<path d="M0 0 C0.66 0.33 1.32 0.66 2 1 C2.625 3.5625 2.625 3.5625 3 6 C4.32 5.67 5.64 5.34 7 5 C6.67 4.01 6.34 3.02 6 2 C7.32 1.67 8.64 1.34 10 1 C12.48063781 11.37357631 12.48063781 11.37357631 11 17 C10.67 16.34 10.34 15.68 10 15 C9.01 15 8.02 15 7 15 C6.34 13.35 5.68 11.7 5 10 C4.01 11.485 4.01 11.485 3 13 C2.34 13.66 1.68 14.32 1 15 C-2.53790403 11.30827405 -2.59115883 7.90609405 -3 3 C-2.01 3 -1.02 3 0 3 C0 2.01 0 1.02 0 0 Z M7 8 C8 10 8 10 8 10 Z M8 11 C8.33 11.99 8.66 12.98 9 14 C9 13.01 9 12.02 9 11 C8.67 11 8.34 11 8 11 Z " fill="#1E6A40" transform="translate(14,23)"/>
<path d="M0 0 C2.31 0.66 4.62 1.32 7 2 C7 2.66 7 3.32 7 4 C6.01 4.33 5.02 4.66 4 5 C7.3 5 10.6 5 14 5 C13.67 5.66 13.34 6.32 13 7 C10.4375 7.625 10.4375 7.625 8 8 C8 9.98 8 11.96 8 14 C10.64 14 13.28 14 16 14 C16 14.66 16 15.32 16 16 C11.38 16 6.76 16 2 16 C2 15.34 2 14.68 2 14 C3.32 14 4.64 14 6 14 C6 12.02 6 10.04 6 8 C4.35 8 2.7 8 1 8 C0.67 5.36 0.34 2.72 0 0 Z " fill="#0F7841" transform="translate(47,48)"/>
<path d="M0 0 C3 1 3 1 4.6875 3.3125 C6 6 6 6 6 10 C3.04335481 11.4783226 0.25770263 11.06032783 -3 11 C-3.33 10.34 -3.66 9.68 -4 9 C-2.68 9 -1.36 9 0 9 C0 8.01 0 7.02 0 6 C-1.65 5.67 -3.3 5.34 -5 5 C-4.67 4.01 -4.34 3.02 -4 2 C-3.67 2.66 -3.34 3.32 -3 4 C-2.01 4 -1.02 4 0 4 C-0.33 3.34 -0.66 2.68 -1 2 C-0.67 1.34 -0.34 0.68 0 0 Z M1 6 C2 8 2 8 2 8 Z " fill="#148847" transform="translate(54,43)"/>
<path d="M0 0 C2 1 2 1 2.75 2.8125 C3.05809758 5.50835385 2.25206764 6.65237318 1 9 C1.33 9.66 1.66 10.32 2 11 C1.01 12.485 1.01 12.485 0 14 C0 13.01 0 12.02 0 11 C-0.61875 10.87625 -1.2375 10.7525 -1.875 10.625 C-4 10 -4 10 -6 8 C-6.125 5.375 -6.125 5.375 -6 3 C-4.02 3.99 -4.02 3.99 -2 5 C-1.34 3.35 -0.68 1.7 0 0 Z " fill="#138342" transform="translate(18,32)"/>
<path d="M0 0 C0.99 0 1.98 0 3 0 C4.60725635 3.21451269 4.05748185 6.43612536 4 10 C3.01 10 2.02 10 1 10 C0.01 8.02 -0.98 6.04 -2 4 C-1.34 4 -0.68 4 0 4 C-0.33 3.01 -0.66 2.02 -1 1 C-0.67 0.67 -0.34 0.34 0 0 Z " fill="#26423E" transform="translate(21,24)"/>
<path d="M0 0 C2.31 0.66 4.62 1.32 7 2 C7 2.66 7 3.32 7 4 C6.01 4.33 5.02 4.66 4 5 C4.99 5.66 5.98 6.32 7 7 C7.1875 10.625 7.1875 10.625 7 14 C6.67 14 6.34 14 6 14 C6 12.02 6 10.04 6 8 C4.35 8 2.7 8 1 8 C0.67 5.36 0.34 2.72 0 0 Z " fill="#105A2F" transform="translate(47,48)"/>
<path d="M0 0 C1.58467728 0.28427417 3.1677057 0.57774818 4.75 0.875 C6.07257812 1.11863281 6.07257812 1.11863281 7.421875 1.3671875 C10 2 10 2 14 4 C10.37 3.67 6.74 3.34 3 3 C3 3.66 3 4.32 3 5 C3.99 5.33 4.98 5.66 6 6 C4.02 6 2.04 6 0 6 C0 4.02 0 2.04 0 0 Z " fill="#087839" transform="translate(7,70)"/>
<path d="M0 0 C2 1.25 2 1.25 4 3 C4 4.32 4 5.64 4 7 C3.01 7 2.02 7 1 7 C1 8.98 1 10.96 1 13 C0.67 13 0.34 13 0 13 C-0.19466332 11.20909747 -0.38051213 9.41723495 -0.5625 7.625 C-0.66691406 6.62726562 -0.77132813 5.62953125 -0.87890625 4.6015625 C-1 2 -1 2 0 0 Z " fill="#199059" transform="translate(18,49)"/>
<path d="M0 0 C0.99 0.33 1.98 0.66 3 1 C3 4.96 3 8.92 3 13 C2.01 13 1.02 13 0 13 C-1.29676812 8.38926889 -0.71109139 4.66159911 0 0 Z " fill="#11412F" transform="translate(43,10)"/>
<path d="M0 0 C-0.1875 1.875 -0.1875 1.875 -1 4 C-3.5625 5.25 -3.5625 5.25 -6 6 C-6 4.02 -6 2.04 -6 0 C-3 -1 -3 -1 0 0 Z " fill="#0D6632" transform="translate(62,80)"/>
<path d="M0 0 C0.66 0.33 1.32 0.66 2 1 C2 1.66 2 2.32 2 3 C2.66 3.33 3.32 3.66 4 4 C3.34 5.65 2.68 7.3 2 9 C1.34 9 0.68 9 0 9 C-0.33 9.66 -0.66 10.32 -1 11 C-1.02688151 9.35425434 -1.04634123 7.70838587 -1.0625 6.0625 C-1.07410156 5.14597656 -1.08570313 4.22945312 -1.09765625 3.28515625 C-1 1 -1 1 0 0 Z " fill="#136935" transform="translate(13,41)"/>
<path d="M0 0 C-1 3 -1 3 -4 5 C-4.72382467 7.05925139 -4.72382467 7.05925139 -5 9 C-5.99 8.67 -6.98 8.34 -8 8 C-8.33 7.01 -8.66 6.02 -9 5 C-7.68 4.34 -6.36 3.68 -5 3 C-5 2.34 -5 1.68 -5 1 C-3 0 -3 0 0 0 Z " fill="#095A2B" transform="translate(28,84)"/>
<path d="M0 0 C2.0625 0.4375 2.0625 0.4375 4 1 C3.1646875 1.37125 3.1646875 1.37125 2.3125 1.75 C-0.39971127 3.21606015 -2.63587365 5.02989471 -5 7 C-5.66 6.01 -6.32 5.02 -7 4 C-4.83450189 1.83450189 -3.8751666 1.64923117 -1 1 C-0.67 0.67 -0.34 0.34 0 0 Z " fill="#085F28" transform="translate(20,81)"/>
<path d="M0 0 C0.33 1.32 0.66 2.64 1 4 C-1.95664519 5.4783226 -4.74229737 5.06032783 -8 5 C-8.33 4.34 -8.66 3.68 -9 3 C-6.03 2.01 -3.06 1.02 0 0 Z " fill="#0A9449" transform="translate(59,49)"/>
<path d="M0 0 C0.1875 3.375 0.1875 3.375 0 7 C-0.99 7.66 -1.98 8.32 -3 9 C-3 7.35 -3 5.7 -3 4 C-3.66 4 -4.32 4 -5 4 C-5 3.01 -5 2.02 -5 1 C-1.125 0 -1.125 0 0 0 Z " fill="#0F6838" transform="translate(25,48)"/>
<path d="M0 0 C1.0828125 0.495 1.0828125 0.495 2.1875 1 C5.01697427 2.00603529 7.02895466 2.16977402 10 2 C10 3.32 10 4.64 10 6 C9.4225 5.67 8.845 5.34 8.25 5 C5.80116138 3.72924102 5.80116138 3.72924102 2 4 C1.67 5.32 1.34 6.64 1 8 C0.67 5.36 0.34 2.72 0 0 Z " fill="#1C5F3C" transform="translate(27,40)"/>
<path d="M0 0 C1.485 0.99 1.485 0.99 3 2 C3.29296875 4.1640625 3.29296875 4.1640625 3.1875 6.625 C3.16042969 7.44226563 3.13335937 8.25953125 3.10546875 9.1015625 C3.07066406 9.72804688 3.03585938 10.35453125 3 11 C2.34 11 1.68 11 1 11 C-0.20272819 8.59454362 -0.10071472 7.05003047 -0.0625 4.375 C-0.05347656 3.55773437 -0.04445312 2.74046875 -0.03515625 1.8984375 C-0.02355469 1.27195312 -0.01195312 0.64546875 0 0 Z " fill="#182925" transform="translate(58,23)"/>
<path d="M0 0 C0.33 0.66 0.66 1.32 1 2 C-0.28062485 3.7074998 -1.61767557 5.37373596 -3 7 C-3.66 7 -4.32 7 -5 7 C-5 7.66 -5 8.32 -5 9 C-5.99 8.67 -6.98 8.34 -8 8 C-6.6106395 4.52659875 -5.38754843 3.48205244 -2 2 C-1.34 1.34 -0.68 0.68 0 0 Z " fill="#0B542A" transform="translate(43,87)"/>
<path d="M0 0 C0.66 0.33 1.32 0.66 2 1 C2 4.3 2 7.6 2 11 C1.01 11.495 1.01 11.495 0 12 C-1.03159626 8.90521121 -0.97482862 7.47368607 -0.5625 4.3125 C-0.46066406 3.50425781 -0.35882813 2.69601563 -0.25390625 1.86328125 C-0.17011719 1.24839844 -0.08632813 0.63351563 0 0 Z " fill="#135036" transform="translate(40,7)"/>
<path d="M0 0 C0.33 0.66 0.66 1.32 1 2 C-5.75 6 -5.75 6 -8 6 C-7.67 4.68 -7.34 3.36 -7 2 C-4.69 1.34 -2.38 0.68 0 0 Z " fill="#0C4421" transform="translate(47,81)"/>
<path d="M0 0 C2.64 0 5.28 0 8 0 C8.6875 1.8125 8.6875 1.8125 9 4 C7.5625 5.75 7.5625 5.75 6 7 C6 6.34 6 5.68 6 5 C5.34 4.67 4.68 4.34 4 4 C4.66 3.01 5.32 2.02 6 1 C4.02 1 2.04 1 0 1 C0 0.67 0 0.34 0 0 Z " fill="#0F5E30" transform="translate(57,71)"/>
<path d="M0 0 C0.66 0.33 1.32 0.66 2 1 C2.40729228 3.32156597 2.74438677 5.6568787 3 8 C2.01 8.33 1.02 8.66 0 9 C0 7.35 0 5.7 0 4 C-0.99 3.67 -1.98 3.34 -3 3 C-2.01 3 -1.02 3 0 3 C0 2.01 0 1.02 0 0 Z " fill="#13282B" transform="translate(14,23)"/>
<path d="M0 0 C0.66 0.33 1.32 0.66 2 1 C-1.08559304 3.26881841 -2.42209376 4.05451946 -6.3125 3.6875 C-7.199375 3.460625 -8.08625 3.23375 -9 3 C-8.67 2.34 -8.34 1.68 -8 1 C-6.865625 1.020625 -5.73125 1.04125 -4.5625 1.0625 C-1.18424326 1.41577477 -1.18424326 1.41577477 0 0 Z " fill="#073C1B" transform="translate(32,91)"/>
<path d="M0 0 C0 1.98 0 3.96 0 6 C-0.66 6 -1.32 6 -2 6 C-2 5.34 -2 4.68 -2 4 C-3.32 4.33 -4.64 4.66 -6 5 C-6 4.34 -6 3.68 -6 3 C-5.34 3 -4.68 3 -4 3 C-3.67 2.34 -3.34 1.68 -3 1 C-1 0 -1 0 0 0 Z " fill="#127F41" transform="translate(45,23)"/>
<path d="M0 0 C0.33 0 0.66 0 1 0 C1 1.98 1 3.96 1 6 C1.66 6.33 2.32 6.66 3 7 C1.68 7.99 0.36 8.98 -1 10 C-1.02689216 8.52093108 -1.04634621 7.04172517 -1.0625 5.5625 C-1.07410156 4.73878906 -1.08570313 3.91507813 -1.09765625 3.06640625 C-1 1 -1 1 0 0 Z " fill="#1E3531" transform="translate(51,23)"/>
<path d="M0 0 C2.31 0.33 4.62 0.66 7 1 C6.67 1.99 6.34 2.98 6 4 C4.02 4 2.04 4 0 4 C0 2.68 0 1.36 0 0 Z " fill="#0C9447" transform="translate(50,37)"/>
<path d="M0 0 C0 0.66 0 1.32 0 2 C-2 3.625 -2 3.625 -4 5 C-4.99 4.01 -5.98 3.02 -7 2 C-4 0 -4 0 0 0 Z " fill="#089548" transform="translate(24,38)"/>
<path d="M0 0 C0.66 0.33 1.32 0.66 2 1 C2.625 3.0625 2.625 3.0625 3 5 C1.68 5.33 0.36 5.66 -1 6 C-1.33 5.34 -1.66 4.68 -2 4 C-1.0625 1.875 -1.0625 1.875 0 0 Z " fill="#0E9547" transform="translate(18,32)"/>
<path d="M0 0 C0.33 0 0.66 0 1 0 C1 2.64 1 5.28 1 8 C0.67 8 0.34 8 0 8 C0 5.36 0 2.72 0 0 Z " fill="#207270" transform="translate(48,26)"/>
<path d="M0 0 C0.33 0 0.66 0 1 0 C1 1.98 1 3.96 1 6 C0.67 6 0.34 6 0 6 C0 4.02 0 2.04 0 0 Z " fill="#4FB9A5" transform="translate(18,22)"/>
<path d="" fill="#000000" transform="translate(0,0)"/>
<path d="" fill="#000000" transform="translate(0,0)"/>
<path d="" fill="#000000" transform="translate(0,0)"/>
<path d="" fill="#000000" transform="translate(0,0)"/>
<path d="" fill="#000000" transform="translate(0,0)"/>
<path d="" fill="#000000" transform="translate(0,0)"/>
<path d="" fill="#000000" transform="translate(0,0)"/>
<path d="" fill="#000000" transform="translate(0,0)"/>
<path d="" fill="#000000" transform="translate(0,0)"/>
<path d="" fill="#000000" transform="translate(0,0)"/>
<path d="" fill="#000000" transform="translate(0,0)"/>
<path d="" fill="#000000" transform="translate(0,0)"/>
<path d="" fill="#000000" transform="translate(0,0)"/>
<path d="" fill="#000000" transform="translate(0,0)"/>
<path d="" fill="#000000" transform="translate(0,0)"/>
<path d="" fill="#000000" transform="translate(0,0)"/>
<path d="" fill="#000000" transform="translate(0,0)"/>
<path d="" fill="#000000" transform="translate(0,0)"/>
<path d="" fill="#000000" transform="translate(0,0)"/>
<path d="" fill="#000000" transform="translate(0,0)"/>
<path d="" fill="#000000" transform="translate(0,0)"/>
<path d="" fill="#000000" transform="translate(0,0)"/>
<path d="" fill="#000000" transform="translate(0,0)"/>
<path d="" fill="#000000" transform="translate(0,0)"/>
<path d="" fill="#000000" transform="translate(0,0)"/>
<path d="" fill="#000000" transform="translate(0,0)"/>
<path d="" fill="#000000" transform="translate(0,0)"/>
<path d="" fill="#000000" transform="translate(0,0)"/>
<path d="" fill="#000000" transform="translate(0,0)"/>
<path d="" fill="#000000" transform="translate(0,0)"/>
<path d="" fill="#000000" transform="translate(0,0)"/>
<path d="" fill="#000000" transform="translate(0,0)"/>
<path d="" fill="#000000" transform="translate(0,0)"/>
<path d="" fill="#000000" transform="translate(0,0)"/>
<path d="" fill="#000000" transform="translate(0,0)"/>
<path d="" fill="#000000" transform="translate(0,0)"/>
<path d="" fill="#000000" transform="translate(0,0)"/>
<path d="" fill="#000000" transform="translate(0,0)"/>
<path d="" fill="#000000" transform="translate(0,0)"/>
<path d="" fill="#000000" transform="translate(0,0)"/>
<path d="" fill="#000000" transform="translate(0,0)"/>
<path d="" fill="#000000" transform="translate(0,0)"/>
<path d="" fill="#000000" transform="translate(0,0)"/>
<path d="" fill="#000000" transform="translate(0,0)"/>
<path d="" fill="#000000" transform="translate(0,0)"/>
<path d="" fill="#000000" transform="translate(0,0)"/>
<path d="" fill="#000000" transform="translate(0,0)"/>
<path d="" fill="#000000" transform="translate(0,0)"/>
<path d="" fill="#000000" transform="translate(0,0)"/>
<path d="" fill="#000000" transform="translate(0,0)"/>
<path d="" fill="#000000" transform="translate(0,0)"/>
<path d="" fill="#000000" transform="translate(0,0)"/>
<path d="" fill="#000000" transform="translate(0,0)"/>
<path d="" fill="#000000" transform="translate(0,0)"/>
</svg>
